<svg xmlns="http://www.w3.org/2000/svg" viewBox="0 0 640 360"><path fill="#231f20" d="m123.74 179.75.02 84a1.01 1 0 0 1-1.01 1H99.61a.45.44 90 0 1-.44-.45l.11-146.45q0-1.4.95-.38l101.01 108.05a.31.31 0 0 0 .53-.21l-.03-40.16q0-.53-.39-.89l-8.83-8.06a.34.34 0 0 0-.57.27q1.01 19.23 5.42 37.98a.39.39 0 0 1-.66.35l-21.28-22.59q-.43-.46-.49-1.08-.29-3.14-.73-10.06c-2.26-35.73 11.01-64.79 34.6-90.72q.67-.74 1.31.02c46.85 55.82 44.8 123.79-.15 179.24a.9.89-47 0 1-1.35.05l-84.45-90.08q-.43-.47-.43.17Zm77.16-47.38q-5.18 11.89-7.55 24.67-.1.52.26.9l7.35 7.84q.73.78.74-.29.21-16.34-.11-32.98-.03-1.65-.69-.14Zm15.71-.19a.34.34 0 0 0-.66.13l.12 12.64a.34.34 0 0 0 .57.25l3.5-3.11a.34.34 0 0 0 .1-.38l-3.63-9.53Zm8.33 25.77a.34.34 0 0 0-.58-.18l-8.27 8.79a.34.34 0 0 0-.09.23v13.54a.34.34 0 0 0 .58.25l10.06-9.79a.34.34 0 0 0 .1-.29l-1.8-12.55Zm.51 34.15c-1.64.53-7.47 6.76-9.02 8.35q-.32.33-.33.8l-.09 23.41a.23.23 0 0 0 .44.09q6.66-15.53 9.55-32.18.12-.69-.55-.47ZM441.03 258.08c-33.16 21.17-76.06-2.2-75.9-41.13.15-39.5 42.96-61.33 75.92-40.8q.45.28.45.8v17.78q0 .68-.47.19c-11.83-12.42-29.26-15.33-44.01-6.95-23.9 13.57-21.75 48.72 3.46 59.64 14.34 6.21 30.01 2.72 40.75-8.77a.3.3 0 0 1 .52.21v17.71a1.57 1.56 73.8 0 1-.72 1.32Z"/><path fill="#231f20" d="M539.64 217.11a49 49 0 0 1-49 49 49 49 0 0 1-49-49 49 49 0 0 1 49-49 49 49 0 0 1 49 49Zm-15.17 0a33.86 33.86 0 0 0-33.86-33.86 33.86 33.86 0 0 0-33.86 33.86 33.86 33.86 0 0 0 33.86 33.86 33.86 33.86 0 0 0 33.86-33.86ZM270.75 221.06v28.15a.56.56 0 0 0 .56.56l33.88-.03a.56.56 0 0 1 .56.56v13.89a.56.56 0 0 1-.56.56h-51.14a.56.56 0 0 1-.56-.56l.02-93.88a.56.56 0 0 1 .56-.56h51.12a.56.56 0 0 1 .56.56v14.13a.56.56 0 0 1-.56.56h-34.13a.56.56 0 0 0-.56.56v18.88a.56.56 0 0 0 .56.56h32.13a.56.56 0 0 1 .56.56v14.38a.56.56 0 0 1-.56.56h-31.88a.56.56 0 0 0-.56.56ZM332.25 186.43v17.85a.72.72 0 0 0 .72.72h25.06a.72.72 0 0 1 .72.72v14.06a.72.72 0 0 1-.72.72h-25.4a.72.72 0 0 0-.72.72l-.23 42.81a.72.72 0 0 1-.72.72H315.3a.72.72 0 0 1-.72-.72l-.35-93.56a.72.72 0 0 1 .72-.72h44.58a.72.72 0 0 1 .72.72v14.58a.72.72 0 0 1-.72.72l-26.56-.06a.72.72 0 0 0-.72.72Z"/></svg>