<svg xmlns="http://www.w3.org/2000/svg" viewBox="0 0 400 307"><path d="M264.56 190.85 181.91 53.13a.32.32 0 0 1 .11-.43l57.63-34.67a.32.32 0 0 1 .43.1L343.64 190.5a.32.32 0 0 1-.28.48l-78.53.03a.32.32 0 0 1-.27-.16ZM159.42 191.5l15.26-.01a.82.81 0 0 1 .82.81v13.95q0 .5-.5.5h-16.93q-.37 0-.36-.37l.06-14.55q0-.64-.32-1.18l-45.51-75.69q-.28-.46.19-.74l57.33-34.54a.51.5-31.1 0 1 .7.17l66.44 110.64q.3.51.89.5l15.27-.03q.49 0 .49.49V281q0 .5-.5.5h-15.57q-.57 0-.48-.57l.32-1.99a.59.58 78.8 0 0-.88-.59c-27.49 16.61-62.27-9.1-52.67-40.38 6.82-22.2 32.28-32.87 52.48-20.47a.56.56 0 0 0 .85-.48l-.08-25.29q0-.46-.43-.58c-2.36-.66-4.73-.14-6.51-.15q-26.46-.04-52.92-.29c-.7-.01-1.5.37-2.36-.11q-.41-.23-.89-.21c-1.56.05-14.87-.15-14.75.64q.07.47.56.47Zm77.68 56.49a19.56 19.56 0 0 0-19.56-19.56 19.56 19.56 0 0 0-19.56 19.56 19.56 19.56 0 0 0 19.56 19.56 19.56 19.56 0 0 0 19.56-19.56ZM99.62 141.33q.13.09.24.11.27.05.42.29l29.27 48.68a.31.3 74.7 0 1-.26.46l-77.63.11a1.83 1.82-15.3 0 1-1.57-.89l-8.31-13.71a.41.4-31.1 0 1 .14-.55l57.45-34.51a.22.22 0 0 1 .25.01ZM396.74 193.51a10.44 10.44 0 0 1-10.44 10.44 10.44 10.44 0 0 1-10.44-10.44 10.44 10.44 0 0 1 10.44-10.44 10.44 10.44 0 0 1 10.44 10.44Zm-1.78.02a8.66 8.66 0 0 0-8.66-8.66 8.66 8.66 0 0 0-8.66 8.66 8.66 8.66 0 0 0 8.66 8.66 8.66 8.66 0 0 0 8.66-8.66Z"/><path d="M383.5 194.98v3.27q0 .53-.32.95-.52.68-1.16-.3-.27-.4-.27-.88v-9.25q0-.48.47-.56c2.35-.43 6.66-.74 7.88 1.62.88 1.71-.18 3.42-1.78 4.14a.68.68 0 0 0-.26 1.04l2.81 3.55q.78 1-.49.92c-2.75-.17-2.36-4.42-6.25-5.04q-.63-.1-.63.54Zm4.73-2.82a1.22 1.22 0 0 0-.58-2.2l-3.24-.4q-.91-.11-.91.81v1.87q0 .51.5.64 2.4.64 4.23-.72ZM133 217.25v-25.79q0-.47.47-.47l15.52-.02q.51 0 .51.52v89.5a.5.49-.6 0 1-.49.49l-15.45.07q-.56.01-.56-.55v-2.28a.45.44-15.2 0 0-.67-.38c-19.52 11.58-44.84 2.94-52.29-18.61-10.97-31.78 23.44-58.99 52.38-42.15q.58.34.58-.33Zm.29 30.74a19.58 19.58 0 0 0-19.58-19.58 19.58 19.58 0 0 0-19.58 19.58 19.58 19.58 0 0 0 19.58 19.58 19.58 19.58 0 0 0 19.58-19.58ZM371.06 255.63q-12.21-2.5-19.77-5.38c-16.59-6.32-13.48-28.39.33-35.44 7.82-4 17.98-3.95 26.88-2.3 11.07 2.04 19.2 8.76 19.23 20.74q0 .5-.5.5h-16.48q-.53 0-.61-.52c-1.07-7.11-6.28-8.26-12.52-8.31-4.7-.04-11.7 1.73-9.77 8.06q.14.46.51.75c5.64 4.53 16.41 5.65 23.44 7.26 12.23 2.82 20.87 11.61 17.11 24.76-5.24 18.32-30.49 19.25-45.01 14.42-9.97-3.31-15.04-8.96-16.37-19.27q-.22-1.65 1.45-1.65h16.2q.48 0 .67.44c.31.72.11 1.61.36 2.38 2.82 8.29 18.39 9.37 23.82 3.97 6.47-6.44-4.57-9.5-8.97-10.41Z"/><rect width="17.76" height="69.24" x="157.74" y="212.26" rx=".43"/><path d="M54.64 278.14C28.39 294.51-5.62 271.17.95 240.99c5.33-24.54 32.37-36.3 53.9-23.22a.45.45 0 0 0 .63-.6q-1.06-1.88.03-2.7c1.41-1.05 13.08-.47 15.52-.46a.73.72 90 0 1 .72.73V281a.5.5 0 0 1-.5.5H55.71q-.8 0-.69-.79l.29-2.13q.13-.94-.67-.44Zm.84-30.16a19.56 19.56 0 0 0-19.56-19.56 19.56 19.56 0 0 0-19.56 19.56 19.56 19.56 0 0 0 19.56 19.56 19.56 19.56 0 0 0 19.56-19.56ZM314.06 278.56a.4.4 0 0 0-.6-.39c-11.89 7.31-26.61 7.27-38.26-.36-20.82-13.63-21.62-43.57-1.78-58.45 11.33-8.5 27.66-9.52 39.77-1.76a.57.56 10 0 0 .86-.6c-.4-1.7-.91-2.96 1.55-2.98q6.93-.05 13.93-.01a.72.72 0 0 1 .72.72V281q0 .5-.5.5h-15.29q-.8 0-.7-.79l.3-2.15Zm-38.81-31.86c-1.8 22.24 29.29 28.93 37.69 8.28 1.53-3.77 1.26-11.35-.45-14.93-8.78-18.44-35.57-13.91-37.24 6.65Z"/></svg>