<svg xmlns="http://www.w3.org/2000/svg" viewBox="0 0 400 346"><path d="M400 68.06v1.5c-.32 6.39-1.67 14.09-5.55 19.35-3.63 4.93-7.17 6.68-13.71 9.67-3.93 1.79-6.52 4.81-9.92 7.39q-2.66 2.02-4.34 4.35-7.56 10.51-14.73 21.36-.25.38-.25.83v142.5q0 .52-.43.82l-18.75 12.99a.37.37 0 0 1-.58-.31l.02-119.77a.51.51 0 0 0-.96-.23c-1.22 2.35-4.34 6.23-4.34 8.74q-.01 55.87.11 111.67 0 .33-.34.33H204.5a.51.5 0 0 1-.51-.5l.02-117.98a.24.24 0 0 0-.4-.18l-43.54 37.1q-.45.38-.86-.04l-35.18-36.27a.43.43 0 0 0-.74.3l-.05 117.06q0 .46-.46.46l-122.79-.05.01-1.21q.05 0 .13-.01.12-.01.12-.18V19.89q0-.62.61-.62l119.2-.02q.52 0 .87.39l38.92 43.6a.33.33 0 0 0 .49.01l43.11-42.76q.2-.2.15-.47-.09-.56 1.04-.71.14-.02.28-.02l120.83-.05a.76.75 90 0 1 .75.76l-.01 86.84a.35.35 0 0 0 .63.22l4.06-5.06q.33-.41.33-.94l-.01-81.24a.31.31 0 0 1 .58-.15l.31.6q.26.48.74.77l17.93 10.76q.46.27.46.8l-.05 43.18a.41.4 64.6 0 0 .72.26c3.62-4.45 6.77-9.45 10.65-13.31 7.13-7.09 11.12-10.61 21.92-9.23 8.52 1.09 13.84 6.47 15.24 14.56Zm-37.06-.87q-7.47 10.29-13.85 16.65-3.52 3.52-13.45 17.5c-3.75 5.28-8.16 9.51-11.33 15.29-2.8 5.14-5.33 9.33-7.54 15.29-2.63 7.09-7.23 13.69-11.59 19.83-1.33 1.88-1.67 4.23-2.98 6.29-2.23 3.53-4.61 15.59-10.94 12.21-5.15-2.74-5.17-10.64-5.67-15.52q-1.38-13.6-2.91-27.16c-.37-3.31-3.47-6.09-6.9-6.7q-10.27-1.82-17.57 6.13-.34.38-.41.88c-1.03 7.04-.52 12.8 1.97 20.01q7.66 22.14 9.68 30.62c3.71 15.54 7.59 32.58 14.83 45.93 3.83 7.05 14.93 9.18 20.42 2.99 4.19-4.72 6.1-9.56 5.96-16.13-.35-17.55 8.55-30.18 17.61-44.14q3.61-5.57 5.79-11.88c.87-2.52 3.27-4.22 4.52-6.59 3.76-7.12 7.38-14.21 11.85-20.84 4.63-6.85 9.78-13.49 14.19-20.46 1.91-3.01 4.73-3.69 6.9-6.15 8.7-9.82 19.35-5.94 23.57-20.92 2.65-9.39 3.08-19.63-8.21-23.33-9.57-3.14-18.76 3.06-23.94 10.2ZM238.01 93.43c-7 2.51-10.73-4.75-19.02-.09q-8.11 4.56-5.42 14.75c1.8 6.84-14.16 10.97-17.5 13.48-6.19 4.65-13.28 8.52-19.27 12.6q-5.79 3.94-8.99 5.66c-2.91 1.57-7.4 2.05-10.23 3.56-6.82 3.64-9.65 12.08-5.69 18.83 4.23 7.22 14.5 9.63 19.48 1.33 2.49-4.15 5.77-9.63 10.02-12.14 6.27-3.72 11.94-8.99 17.45-12.42q6.12-3.8 12.33-7.46c6.62-3.91 6.85 5.31 7.2 9.23 1.74 19.23 2.5 38.68.44 57.91-.36 3.34 1.07 5.54-.19 9.15-1.92 5.56-2.23 9.78-.68 15.8 1.2 4.67 2.65 9.07 3.02 13.99.3 4.01.76 7.43 1.02 11.91.53 9.1 5.84 9.73 13.28 10.8 11.36 1.62 14.03-5.32 16.61-14.24 2.27-7.83-3.33-12.95-4.11-20.05-.43-3.94-1.73-7.71-1.83-11.6-.3-12.45 1.01-24.77.81-37.25-.02-1.46-.67-3.38-.53-4.68.46-4.29.66-7.65-.06-12.26q-.81-5.12-.76-11.06c.09-10.18-1.05-21.28-.47-32.09.46-8.4 6.31-6.51 11.86-9.9 3.12-1.91 6.3-2.68 9.24-4.82q5.6-4.07 11.99-6.74c8.49-3.55 13.49-13.04 5.82-20.62-2.07-2.05-4.88-2.08-7.65-2.19-5.4-.22-11.65 5.75-14.8 9.64-3.76 4.66-10.52 5.84-14.77 7.62q-4.26 1.79-8.6 3.35Z"/><path d="M159.94 36.88c4.62 2.14 7.73 5.09 11.42 8.36q.43.39.02.8l-10.44 10.38a.55.55 0 0 1-.8-.03l-29.25-32.66a.14.14 0 0 1 .16-.22q14.47 6.7 28.89 13.37ZM199.04 195.21c-3.23 2.69-7.01 6.64-11.11 7.77q-9.92 2.73-20.13 4.64-1.08.2-.23-.5l31.42-25.92a.35.34 70.5 0 1 .56.27l-.07 12.81q-.01.57-.44.93ZM128.56 183.68l17.34 17.35a.33.33 0 0 1 .1.24v74.58a.33.33 0 0 1-.13.26l-17.35 13.12a.33.33 0 0 1-.53-.26l.01-105.05a.33.33 0 0 1 .56-.24ZM67.23 316.29c-4.63-1.61-11.93-3.08-12.19-9.37-.55-13.82 19.57-13.07 19.03-1.17q-.02.51-.54.5l-5.11-.01q-.53 0-.72-.49-1.57-3.92-5.49-1.92a1.44 1.44 0 0 0 .15 2.63c3.47 1.31 9.06 2.54 11.17 5.25 3.24 4.16 1.92 10.56-2.36 13.46-6.43 4.34-16.68.86-17.23-7.93q-.03-.57.54-.59l5.99-.19q.63-.02.73.6c.64 3.91 4.64 4.89 6.83 1.62a1.6 1.59 26.5 0 0-.8-2.39ZM100.99 304.3c-6.76-3.07-8.06 13.33-2.52 15.28 3.28 1.15 4.09-1.87 4.87-4.25q.18-.57.78-.57l5.86-.01q.69-.01.64.69c-.43 6.38-4.44 11.28-11.08 11.37-13.57.17-15.64-22.79-5.29-28.58 7.7-4.31 15.38.64 16.11 9.41q.05.61-.56.61h-5.78q-.52 0-.66-.5c-.39-1.43-.95-2.8-2.37-3.45ZM258.71 317.11c-3.46-4.13-12.59-1.81-13.09-10.55-.7-12.42 19.29-13.43 19.31-.94q0 .64-.64.63l-5.42-.01q-.52 0-.62-.52c-.65-3.68-6.04-3.01-5.61-.44a2.21 2.19-86.6 0 0 1.53 1.74c5.2 1.59 11.18 2.54 11.94 9.06 1.52 13.12-20.16 15.21-21.43 1.11a.54.54 0 0 1 .55-.59c1.96.05 6.37-.98 7.08 1.23 1.13 3.54 6.1 3.79 6.65.19q.08-.51-.25-.91Z"/><path d="M290.276 326.99a15.16 12.11 89.9 0 1-12.136-15.139 15.16 12.11 89.9 0 1 12.084-15.181 15.16 12.11 89.9 0 1 12.136 15.139 15.16 12.11 89.9 0 1-12.084 15.181Zm-.054-7.14a8 4.76 90.2 0 0 4.788-7.983 8 4.76 90.2 0 0-4.732-8.017 8 4.76 90.2 0 0-4.788 7.983 8 4.76 90.2 0 0 4.732 8.017ZM345.09 303.82a6.82 6.82 0 0 1-6.82 6.82 6.82 6.82 0 0 1-6.82-6.82 6.82 6.82 0 0 1 6.82-6.82 6.82 6.82 0 0 1 6.82 6.82Zm-7.004 5.297a5.24 4.92 91.9 0 0 5.091-5.074 5.24 4.92 91.9 0 0-4.743-5.4 5.24 4.92 91.9 0 0-5.091 5.074 5.24 4.92 91.9 0 0 4.743 5.4ZM0 325.94v-28q4.9-.86 10.1-.3.48.05.56.51l2.78 14.91a.43.43 0 0 0 .84 0l2.83-15.08q.09-.48.58-.48h9.54q.54 0 .54.54l-.03 27.59q0 .62-.62.62h-5.79q-.67 0-.66-.67l.33-16.6a.37.37 0 0 0-.73-.08l-3.52 16.79q-.12.56-.69.56h-4.28q-.57 0-.7-.56c-.42-1.77-3.56-16.97-3.97-17.16q-.42-.2-.41.26l.42 16.6q.01.68-.67.77-3.32.41-6.45-.22ZM37.57 314.24c.06 7.03 6.93 7.38 6.93 1.19q-.01-8.62 0-17.25.01-.68.69-.68h5.78q.82 0 .82.82c.01 5.98 1.21 18.55-1.14 23.48-3.93 8.25-19.98 6.46-20.28-4.24q-.25-8.99-.15-19.32a.75.75 0 0 1 .75-.74h6.08q.57 0 .56.57-.13 4.99-.04 16.17Z"/><rect width="7.12" height="28.74" x="77.75" y="297.51" rx=".51"/><path d="M136.75 305.38v20.24a.63.63 0 0 1-.63.63h-6.01a.63.63 0 0 1-.63-.63l.05-20.24a.63.63 0 0 0-.63-.63h-5.51a.63.63 0 0 1-.63-.63l-.02-5.99a.63.63 0 0 1 .63-.63h19.5a.63.63 0 0 1 .63.63v5.99a.63.63 0 0 1-.63.63h-5.49a.63.63 0 0 0-.63.63ZM152.77 315.93l-.03 2.16a.69.69 0 0 0 .69.7l11.42-.06a.69.69 0 0 1 .69.69v6.14a.69.69 0 0 1-.69.69h-18.66a.69.69 0 0 1-.69-.69v-27.37a.69.69 0 0 1 .69-.69h18.34a.69.69 0 0 1 .69.69l.04 5.87a.69.69 0 0 1-.69.69h-11.12a.69.69 0 0 0-.69.69v2.37a.69.69 0 0 0 .69.69h9.86a.69.69 0 0 1 .69.69v5.37a.69.69 0 0 1-.69.69h-9.85a.69.69 0 0 0-.69.68ZM175.51 318.81l9.48-.09a.5.5 0 0 1 .51.5v6.53a.5.5 0 0 1-.5.5h-16.75a.5.5 0 0 1-.5-.5V298a.5.5 0 0 1 .5-.5h6.25a.5.5 0 0 1 .5.5v20.31a.5.5 0 0 0 .51.5ZM195.19 318.75h11.55a.51.51 0 0 1 .51.51v6.48a.51.51 0 0 1-.51.51h-18.98a.51.51 0 0 1-.51-.51v-27.73a.51.51 0 0 1 .51-.51h18.57a.51.51 0 0 1 .51.51l.02 6.23a.51.51 0 0 1-.51.51h-11.09a.51.51 0 0 0-.51.47l-.21 2.73a.51.51 0 0 0 .51.55h10.31a.51.51 0 0 1 .51.52l-.08 5.73a.51.51 0 0 1-.51.5h-10.2a.51.51 0 0 0-.51.53l.11 2.48a.51.51 0 0 0 .51.49ZM224.6 297.5h6.83a.35.35 0 0 1 .34.44l-7.24 28.05a.35.35 0 0 1-.34.26h-7.57a.35.35 0 0 1-.34-.27l-6.94-28.05a.35.35 0 0 1 .34-.43h6.76a.35.35 0 0 1 .34.28l3.39 16.01a.35.35 0 0 0 .68 0l3.41-16.01a.35.35 0 0 1 .34-.28Z"/><rect width="7.06" height="28.72" x="234.73" y="297.52" rx=".26"/><rect width="7.26" height="28.74" x="268.5" y="297.51" rx=".52"/><path d="m311.65 311.41.19 14.48a.36.36 0 0 1-.36.36h-6.1a.36.36 0 0 1-.36-.36l-.06-28.03a.36.36 0 0 1 .36-.36h6.97a.36.36 0 0 1 .33.22l6.3 14.36a.36.36 0 0 0 .69-.15l-.22-14.06a.36.36 0 0 1 .36-.37h6.16a.36.36 0 0 1 .36.36l-.03 28.03a.36.36 0 0 1-.36.36h-6.41a.36.36 0 0 1-.33-.21l-6.8-14.78a.36.36 0 0 0-.69.15ZM337.15 304.79q-.36.76-.04 1.7.16.48-.32.63l-.44.13q-.82.26-.81-.6l.05-5.31q0-.48.43-.71c3.13-1.71 7.34 1.33 4.11 3.51q-.66.44-.16 1.06l1.07 1.32q.45.55-.24.71-.43.1-.93-.09-.42-.15-.65-.54l-1.1-1.86q-.53-.89-.97.05Zm2.668-2.243a1.45.87 7.4 0 0-1.326-1.05 1.45.87 7.4 0 0-1.55.676 1.45.87 7.4 0 0 1.326 1.05 1.45.87 7.4 0 0 1.55-.676Z"/></svg>