<svg xmlns="http://www.w3.org/2000/svg" viewBox="0 0 1020 1152"><g fill="none" stroke="#8a8a8a" stroke-width="2"><path d="M256.44 951.81c81.71 45.69 167.03 84.77 252.83 121.4q.88.37 1.46.65.48.24.97.03 106.51-45.08 205.99-95.7 34.75-17.68 70.84-39.28c9.98-5.98 20.57-12.76 28.98-18.9 82.95-60.52 127.21-154.2 127.22-256.27q.04-254.21.01-508.49 0-.51-.45-.74c-52.81-27.57-110.54-48.13-167.55-62-97.31-23.67-197.82-33.26-298.67-30.64q-96.46 2.5-192.01 21.68C214.17 97.98 143.5 120.8 78.29 154.59a.58.57-13.6 0 0-.32.51q-.01 252.78.31 505.59c.14 106.79 45.34 204.97 135.54 265.15q19.92 13.28 42.62 25.97" vector-effect="non-scaling-stroke"/><path d="M220.22 888.8c19.23 14.46 41.51 27.75 61.58 38.66 73.82 40.12 152.48 76.45 229.04 109.61q.46.2.92 0 86.99-37.4 171.76-79.58c39.06-19.44 72.89-37.01 105.06-58.67 78.77-53.06 120.59-138.61 121.49-232.83.26-27.49.42-55 .42-82.48q.02-186.29-.04-372.58c0-14.24-.32-32.15.15-48.28q.02-.52-.51-.57c-179.38-17.29-365.03-11.59-536.15 50.09q-145.96 52.61-261.07 155.66-.37.34-.37.84 0 144.01.02 288.02c.02 91.17 33.94 176.67 107.7 232.11" vector-effect="non-scaling-stroke"/><path d="M420.28 899.75h75.47q.5 0 .5-.5V742.73a.5.5 0 0 1 .62-.49q18.6 4.62 37.81 3.95c104.31-3.59 133.17-114.15 129.2-198.2-1.24-26.2-5.12-50.99-14.23-75.64-21.68-58.64-69.29-88.67-131.65-87.3-35.15.78-67.68 7.86-97.49 26.14a1.61 1.58-16.1 0 0-.76 1.35v486.68a.53.53 0 0 0 .53.53M705.08 549.77c8.89 9.73 21.02 19.83 32.61 27.29 13.98 9 33.61 19.23 48.4 31.58q18.52 15.45 17.59 38.15c-1.55 37.75-38.93 43.72-68.05 35.57q-27.85-7.79-50.2-26.61-.58-.49-.58.27l.09 67.63a.95.94-75.3 0 0 .47.82c34.57 20.05 78.33 28.83 117.33 19.02 44.12-11.11 73.14-46.62 76.54-91.49 5.55-73.23-41.89-98.88-95.35-130.46-14.93-8.82-28.32-20.33-29.22-38.79-1.41-29.14 23.57-40.72 48.73-38.88 24.24 1.77 46.76 13.27 64.02 30.01a.33.32 22.1 0 0 .55-.23l-.02-63.89q0-.46-.37-.73c-43.28-31.29-107.51-33.22-150.17-.18-21.72 16.82-34.06 40.67-35.62 68.1-1.54 26.94 4.84 52.67 23.25 72.82M259.44 747.31c42.31 1.07 84.82-6.67 120.53-29.44a1.32 1.31-16.4 0 0 .61-1.11q.44-161.02-.07-322.04 0-.39.15-.75.22-.54.03-1.15a.48.47-9.4 0 0-.45-.32H306q-1.75 0-1.75 1.75V674.3q0 .56-.48.85c-9.32 5.67-19.71 8.03-30.71 8.74-40.83 2.61-45.27-30.7-45.28-61.89l-.04-228.99q0-.51-.51-.51h-75.21q-.5 0-.5.5-.08 115.41.03 230.82c.02 21.08 1.76 41.21 8.74 60.91 15.63 44.13 54.92 61.47 99.15 62.58" vector-effect="non-scaling-stroke"/><path d="M496.88 680.89c31.45 11.46 62.58.67 75.86-30.95q9-21.4 11.42-46.18 4.13-42.09-.34-84.07c-3.59-33.75-14.98-72.74-56.33-74.19q-16.99-.6-30.75 4.8-.53.2-.52.76l.11 229.03q0 .6.55.8" vector-effect="non-scaling-stroke"/></g><path fill="#141414" d="M68.43 149.14c83.51-43.75 175.15-69.86 268.07-83.9 43.81-6.62 85.31-10.39 129.32-12.26 29.24-1.24 60.93-.75 78.93-.43q33.9.61 82 5.2 48.77 4.65 101.74 14.78c77.85 14.87 154.84 39.24 225.01 76.24a1.88 1.86 14.1 0 1 1 1.65q.01 253.08-.01 506.08c0 79.68-22.75 156.1-74.34 217.66-25.89 30.9-54.31 53.48-88.95 74.06-38.76 23.04-78.85 43.68-119.46 63.26q-79.09 38.15-159.85 72.62-.46.2-.92 0-97.32-41.26-191.96-88.38c-33.82-16.84-70.01-36.22-102.47-56.74-90.29-57.09-142.11-151.71-147.36-258.04q-.03-.51-.46-.79-.72-.47-.72-1.15V149.86q0-.49.43-.72Zm188.01 802.67c81.71 45.69 167.03 84.77 252.83 121.4q.88.37 1.46.65.48.24.97.03 106.51-45.08 205.99-95.7 34.75-17.68 70.84-39.28c9.98-5.98 20.57-12.76 28.98-18.9 82.95-60.52 127.21-154.2 127.22-256.27q.04-254.21.01-508.49 0-.51-.45-.74c-52.81-27.57-110.54-48.13-167.55-62-97.31-23.67-197.82-33.26-298.67-30.64q-96.46 2.5-192.01 21.68C214.17 97.98 143.5 120.8 78.29 154.59a.58.57-13.6 0 0-.32.51q-.01 252.78.31 505.59c.14 106.79 45.34 204.97 135.54 265.15q19.92 13.28 42.62 25.97Z"/><path fill="#fff" d="M256.44 951.81q-22.7-12.69-42.62-25.97c-90.2-60.18-135.4-158.36-135.54-265.15q-.32-252.81-.31-505.59a.58.57-13.6 0 1 .32-.51c65.21-33.79 135.88-56.61 207.77-71.04q95.55-19.18 192.01-21.68c100.85-2.62 201.36 6.97 298.67 30.64 57.01 13.87 114.74 34.43 167.55 62q.45.23.45.74.03 254.28-.01 508.49c-.01 102.07-44.27 195.75-127.22 256.27-8.41 6.14-19 12.92-28.98 18.9q-36.09 21.6-70.84 39.28-99.48 50.62-205.99 95.7-.49.21-.97-.03-.58-.28-1.46-.65c-85.8-36.63-171.12-75.71-252.83-121.4Zm-36.22-63.01c19.23 14.46 41.51 27.75 61.58 38.66 73.82 40.12 152.48 76.45 229.04 109.61q.46.2.92 0 86.99-37.4 171.76-79.58c39.06-19.44 72.89-37.01 105.06-58.67 78.77-53.06 120.59-138.61 121.49-232.83.26-27.49.42-55 .42-82.48q.02-186.29-.04-372.58c0-14.24-.32-32.15.15-48.28q.02-.52-.51-.57c-179.38-17.29-365.03-11.59-536.15 50.09q-145.96 52.61-261.07 155.66-.37.34-.37.84 0 144.01.02 288.02c.02 91.17 33.94 176.67 107.7 232.11Z"/><path fill="#141414" d="M281.8 927.46c-20.07-10.91-42.35-24.2-61.58-38.66-73.76-55.44-107.68-140.94-107.7-232.11q-.02-144.01-.02-288.02 0-.5.37-.84 115.11-103.05 261.07-155.66c171.12-61.68 356.77-67.38 536.15-50.09q.53.05.51.57c-.47 16.13-.15 34.04-.15 48.28q.06 186.29.04 372.58c0 27.48-.16 54.99-.42 82.48-.9 94.22-42.72 179.77-121.49 232.83-32.17 21.66-66 39.23-105.06 58.67q-84.77 42.18-171.76 79.58-.46.2-.92 0c-76.56-33.16-155.22-69.49-229.04-109.61Zm138.48-27.71h75.47q.5 0 .5-.5V742.73a.5.5 0 0 1 .62-.49q18.6 4.62 37.81 3.95c104.31-3.59 133.17-114.15 129.2-198.2-1.24-26.2-5.12-50.99-14.23-75.64-21.68-58.64-69.29-88.67-131.65-87.3-35.15.78-67.68 7.86-97.49 26.14a1.61 1.58-16.1 0 0-.76 1.35v486.68a.53.53 0 0 0 .53.53Zm284.8-349.98c8.89 9.73 21.02 19.83 32.61 27.29 13.98 9 33.61 19.23 48.4 31.58q18.52 15.45 17.59 38.15c-1.55 37.75-38.93 43.72-68.05 35.57q-27.85-7.79-50.2-26.61-.58-.49-.58.27l.09 67.63a.95.94-75.3 0 0 .47.82c34.57 20.05 78.33 28.83 117.33 19.02 44.12-11.11 73.14-46.62 76.54-91.49 5.55-73.23-41.89-98.88-95.35-130.46-14.93-8.82-28.32-20.33-29.22-38.79-1.41-29.14 23.57-40.72 48.73-38.88 24.24 1.77 46.76 13.27 64.02 30.01a.33.32 22.1 0 0 .55-.23l-.02-63.89q0-.46-.37-.73c-43.28-31.29-107.51-33.22-150.17-.18-21.72 16.82-34.06 40.67-35.62 68.1-1.54 26.94 4.84 52.67 23.25 72.82ZM259.44 747.31c42.31 1.07 84.82-6.67 120.53-29.44a1.32 1.31-16.4 0 0 .61-1.11q.44-161.02-.07-322.04 0-.39.15-.75.22-.54.03-1.15a.48.47-9.4 0 0-.45-.32H306q-1.75 0-1.75 1.75V674.3q0 .56-.48.85c-9.32 5.67-19.71 8.03-30.71 8.74-40.83 2.61-45.27-30.7-45.28-61.89l-.04-228.99q0-.51-.51-.51h-75.21q-.5 0-.5.5-.08 115.41.03 230.82c.02 21.08 1.76 41.21 8.74 60.91 15.63 44.13 54.92 61.47 99.15 62.58Z"/><path fill="#fff" d="M420.28 899.75a.53.53 0 0 1-.53-.53V412.54a1.61 1.58-16.1 0 1 .76-1.35c29.81-18.28 62.34-25.36 97.49-26.14 62.36-1.37 109.97 28.66 131.65 87.3 9.11 24.65 12.99 49.44 14.23 75.64 3.97 84.05-24.89 194.61-129.2 198.2q-19.21.67-37.81-3.95a.5.5 0 0 0-.62.49v156.52q0 .5-.5.5h-75.47Zm76.6-218.86c31.45 11.46 62.58.67 75.86-30.95q9-21.4 11.42-46.18 4.13-42.09-.34-84.07c-3.59-33.75-14.98-72.74-56.33-74.19q-16.99-.6-30.75 4.8-.53.2-.52.76l.11 229.03q0 .6.55.8ZM705.08 549.77c-18.41-20.15-24.79-45.88-23.25-72.82 1.56-27.43 13.9-51.28 35.62-68.1 42.66-33.04 106.89-31.11 150.17.18q.37.27.37.73l.02 63.89a.33.32 22.1 0 1-.55.23c-17.26-16.74-39.78-28.24-64.02-30.01-25.16-1.84-50.14 9.74-48.73 38.88.9 18.46 14.29 29.97 29.22 38.79 53.46 31.58 100.9 57.23 95.35 130.46-3.4 44.87-32.42 80.38-76.54 91.49-39 9.81-82.76 1.03-117.33-19.02a.95.94-75.3 0 1-.47-.82l-.09-67.63q0-.76.58-.27 22.35 18.82 50.2 26.61c29.12 8.15 66.5 2.18 68.05-35.57q.93-22.7-17.59-38.15c-14.79-12.35-34.42-22.58-48.4-31.58-11.59-7.46-23.72-17.56-32.61-27.29ZM259.44 747.31c-44.23-1.11-83.52-18.45-99.15-62.58-6.98-19.7-8.72-39.83-8.74-60.91q-.11-115.41-.03-230.82 0-.5.5-.5h75.21q.51 0 .51.51l.04 228.99c.01 31.19 4.45 64.5 45.28 61.89 11-.71 21.39-3.07 30.71-8.74q.48-.29.48-.85V394.25q0-1.75 1.75-1.75h74.24a.48.47-9.4 0 1 .45.32q.19.61-.03 1.15-.15.36-.15.75.51 161.02.07 322.04a1.32 1.31-16.4 0 1-.61 1.11c-35.71 22.77-78.22 30.51-120.53 29.44Z"/><path fill="#141414" d="M496.88 680.89q-.55-.2-.55-.8l-.11-229.03q-.01-.56.52-.76 13.76-5.4 30.75-4.8c41.35 1.45 52.74 40.44 56.33 74.19q4.47 41.98.34 84.07-2.42 24.78-11.42 46.18c-13.28 31.62-44.41 42.41-75.86 30.95ZM763.3 1088.7c-22.12-22.58-10.73-57.76 18.7-66q7.42-2.07 15.37-.93c41.8 6.01 48.28 62.58 7.17 76.77q-3.1 1.07-5.67 1.13-.47.01-.66.44c-.66 1.47-9.07.89-10.84.89q-.49.01-.86-.31-.98-.83-3-1.17-11.52-1.95-20.21-10.82Zm62.7-27.848a33.91 33.21-.3 0 0-34.084-33.032 33.91 33.21-.3 0 0-33.736 33.388 33.91 33.21-.3 0 0 34.084 33.031A33.91 33.21-.3 0 0 826 1060.852Z"/><path fill="#141414" d="M798.05 1063.08a1.12 1.11-25.2 0 0-.62 1.72l13.67 19.45a.37.37 0 0 1-.3.58l-8.46-.07a1.92 1.91 73.8 0 1-1.59-.88c-1.67-2.57-11.94-19.11-13.57-19.53a.75.74 7 0 0-.93.72v19.18q0 .5-.5.5h-7.25q-.75 0-.75-.75v-46.68a.27.26-1.1 0 1 .26-.26c6.82-.2 17.39-1.03 22.86 1.87 10.57 5.61 8.94 20.94-2.82 24.15Zm-11.61-4.9c5.4.67 12.21.23 13.02-6.44 1-8.18-6.3-8.8-12.74-8.08q-.47.05-.47.53v13.78q0 .19.19.21Z"/></svg>